<svg width="138" height="138" viewBox="0 0 138 138" fill="none" xmlns="http://www.w3.org/2000/svg">
<path fill-rule="evenodd" clip-rule="evenodd" d="M84.8528 33.9426C98.9117 48.0015 98.9117 70.7954 84.8528 84.8543C70.7939 98.9132 48 98.9132 33.9411 84.8543C19.8823 70.7954 19.8823 48.0015 33.9411 33.9426C48 19.8837 70.7939 19.8837 84.8528 33.9426ZM91.1367 86.9073C105.467 70.4077 104.786 45.3907 89.0955 29.7C72.6934 13.2979 46.1005 13.2979 29.6985 29.7C13.2965 46.102 13.2965 72.6949 29.6985 89.0969C45.3853 104.784 70.3935 105.468 86.8932 91.1491L103.945 108.201C105.117 109.373 107.016 109.373 108.188 108.201C109.36 107.03 109.36 105.13 108.188 103.959L91.1367 86.9073Z" fill="#CBD3E1"/>
<rect x="44.0645" y="53.0625" width="4.5" height="6" rx="2.25" fill="#CBD3E1"/>
<rect x="68.0645" y="53.0625" width="4.5" height="6" rx="2.25" fill="#CBD3E1"/>
<rect x="54.5645" y="66.5625" width="9" height="3" fill="#CBD3E1"/>
</svg>
