<svg width="40" height="40" viewBox="0 0 40 40" fill="none" xmlns="http://www.w3.org/2000/svg">
<path d="M38 10L21.9583 2.20066C21.6963 2.07327 21.3918 2.06648 21.1243 2.18205L3.03437 10L21.0813 18.7743C21.3726 18.9159 21.7144 18.9077 21.9985 18.7523L38 10Z" fill="#2B2B2B"/>
<path d="M3.03437 10L21.0813 18.7743C21.3726 18.9159 21.7144 18.9077 21.9985 18.7523L38 10L21.9583 2.20066C21.6963 2.07327 21.3918 2.06648 21.1243 2.18205L3.03437 10ZM3.03437 10C3.03437 10 2.08474 12.3916 2.00597 14C1.90857 15.989 3.03437 19 3.03437 19M38 19L21.9985 27.7523C21.7144 27.9077 21.3726 27.9159 21.0813 27.7743L3.03437 19M3.03437 19C3.03437 19 2.00597 22.0087 2.00597 24C2.00597 25.9913 3.03437 29 3.03437 29L21.0813 37.7743C21.3726 37.9159 21.7144 37.9077 21.9985 37.7523L38 29" stroke="#2B2B2B" stroke-width="4" stroke-linecap="round" stroke-linejoin="round"/>
</svg>
