<?xml version="1.0" standalone="no"?>
<!DOCTYPE svg PUBLIC "-//W3C//DTD SVG 20010904//EN"
 "http://www.w3.org/TR/2001/REC-SVG-20010904/DTD/svg10.dtd">
<svg version="1.0" xmlns="http://www.w3.org/2000/svg"
 width="1024.000000pt" height="1024.000000pt" viewBox="0 0 1024.000000 1024.000000"
 preserveAspectRatio="xMidYMid meet">

<g transform="translate(0.000000,1024.000000) scale(0.100000,-0.100000)"
fill="#000000" stroke="none">
<path d="M4890 8929 c-823 -95 -1533 -698 -1746 -1483 -66 -244 -66 -248 -71
-978 l-4 -668 -388 0 c-316 0 -398 -3 -446 -15 -160 -42 -295 -185 -325 -346
-14 -72 -14 -3738 0 -3809 32 -168 175 -315 340 -350 41 -8 774 -10 2910 -8
l2855 3 68 32 c80 38 173 122 210 191 60 111 57 -8 57 2037 0 2065 4 1932 -63
2043 -37 62 -103 127 -167 165 -91 53 -130 57 -552 57 l-388 0 0 610 c0 749
-9 847 -102 1127 -251 758 -931 1305 -1730 1392 -112 13 -349 12 -458 0z m500
-759 c437 -84 812 -366 1009 -759 24 -46 60 -136 81 -200 65 -195 70 -256 70
-870 l0 -541 -1426 0 -1425 0 4 583 c3 555 4 587 25 679 99 440 367 784 761
983 153 76 345 131 526 149 77 8 279 -5 375 -24z m-125 -3815 c151 -39 286
-132 368 -252 177 -258 128 -611 -113 -810 -30 -25 -72 -54 -92 -64 l-38 -19
0 -519 c0 -459 -2 -521 -16 -535 -13 -14 -50 -16 -246 -16 -201 0 -234 2 -250
17 -17 15 -18 45 -18 533 l0 517 -60 37 c-285 176 -375 546 -202 831 79 131
227 239 382 279 73 19 212 20 285 1z"/>
</g>
</svg>
